# xmcd CD database file
#
# Track frame offsets:
#	150
#	15009
#	27168
#	44454
#	63733
#	76978
#	88624
#	98530
#	109179
#	121481
#	134016
#	144921
#	157355
#	167872
#	181185
#	193246
#	207629
#	219508
#	231853
#	245591
#	263702
#	274603
#	288910
#	302670
#	315656
#	328840
#	341172
#
# Disc length: 4757 seconds
#
# Revision: 0
# Processed by: cddbd v1.5.2PL0 Copyright (c) Steve Scherf et al.
# Submitted via: CDex 1.70beta2
#
DISCID=9212931b
DTITLE=Otis Redding - The very best of Otis Redding
DYEAR=1994
DGENRE=Blues
TTITLE0=I've got dreams to remember
TTITLE1=(Sittin' on) The dock of the bay
TTITLE2=Try a little tenderness
TTITLE3=Change gonna come
TTITLE4=I've been loving you too long (to stop now)
TTITLE5=These arms of mine
TTITLE6=Respect
TTITLE7=Hard to handle
TTITLE8=Fa-fa-fa-fa-fa (sad song)
TTITLE9=Satisfaction
TTITLE10=That's how strong my love is
TTITLE11=I can't turn you loose
TTITLE12=Love man
TTITLE13=My girl
TTITLE14=Shake
TTITLE15=My lover's prayer
TTITLE16=Security
TTITLE17=Mr. Pitiful
TTITLE18=Tramp (with Carla Thomas)
TTITLE19=Cigarettes and coffee
TTITLE20=Pain in my heart
TTITLE21=Cupid
TTITLE22=Chain gang
TTITLE23=Knock on wood (with Carla Thomas)
TTITLE24=I love you more than words can say
TTITLE25=The happy song (Dum-dum)
TTITLE26=Wonderful world
EXTD=YEAR: 1994
EXTT0=
EXTT1=
EXTT2=
EXTT3=
EXTT4=
EXTT5=
EXTT6=
EXTT7=
EXTT8=
EXTT9=
EXTT10=
EXTT11=
EXTT12=
EXTT13=
EXTT14=
EXTT15=
EXTT16=
EXTT17=
EXTT18=
EXTT19=
EXTT20=
EXTT21=
EXTT22=
EXTT23=
EXTT24=
EXTT25=
EXTT26=
PLAYORDER=
